<mxfile host="app.diagrams.net" agent="Mozilla/5.0 (Macintosh; Intel Mac OS X 10_15_7) AppleWebKit/537.36 (KHTML, like Gecko) Chrome/130.0.0.0 Safari/537.36 QuarkPC/2.2.5.251" version="26.1.3">
  <diagram name="第 1 页" id="fu64JRe2XMQlZ79tcRYZ">
    <mxGraphModel dx="1189" dy="756" grid="1" gridSize="10" guides="1" tooltips="1" connect="1" arrows="1" fold="1" page="1" pageScale="1" pageWidth="827" pageHeight="1169" math="0" shadow="0">
      <root>
        <mxCell id="0" />
        <mxCell id="1" parent="0" />
        <mxCell id="rulVWmGJrG6y-shV3jUQ-1" value="StarRocks Write Design" style="swimlane;childLayout=stackLayout;resizeParent=1;resizeParentMax=0;startSize=20;html=1;" vertex="1" parent="1">
          <mxGeometry x="10" y="130" width="1109.9999999999995" height="480" as="geometry" />
        </mxCell>
        <mxCell id="rulVWmGJrG6y-shV3jUQ-2" value="AIMAS SR Write Producer" style="swimlane;startSize=20;html=1;" vertex="1" parent="rulVWmGJrG6y-shV3jUQ-1">
          <mxGeometry y="20" width="180" height="460" as="geometry" />
        </mxCell>
        <mxCell id="rulVWmGJrG6y-shV3jUQ-5" value="SR Write Request&lt;div&gt;（Workflow）&lt;/div&gt;" style="rounded=1;whiteSpace=wrap;html=1;" vertex="1" parent="rulVWmGJrG6y-shV3jUQ-2">
          <mxGeometry x="26" y="62" width="110" height="50" as="geometry" />
        </mxCell>
        <mxCell id="rulVWmGJrG6y-shV3jUQ-3" value="CP Kafka" style="swimlane;startSize=20;html=1;" vertex="1" parent="rulVWmGJrG6y-shV3jUQ-1">
          <mxGeometry x="180" y="20" width="180" height="460" as="geometry" />
        </mxCell>
        <mxCell id="rulVWmGJrG6y-shV3jUQ-7" value="" style="shape=cylinder3;whiteSpace=wrap;html=1;boundedLbl=1;backgroundOutline=1;size=15;rotation=90;" vertex="1" parent="rulVWmGJrG6y-shV3jUQ-3">
          <mxGeometry x="54" y="42" width="54" height="90" as="geometry" />
        </mxCell>
        <mxCell id="rulVWmGJrG6y-shV3jUQ-9" value="Kafka" style="text;html=1;align=center;verticalAlign=middle;whiteSpace=wrap;rounded=0;" vertex="1" parent="rulVWmGJrG6y-shV3jUQ-3">
          <mxGeometry x="46" y="72" width="60" height="30" as="geometry" />
        </mxCell>
        <mxCell id="rulVWmGJrG6y-shV3jUQ-4" value="SpringKafkaListener" style="swimlane;startSize=20;html=1;" vertex="1" parent="rulVWmGJrG6y-shV3jUQ-1">
          <mxGeometry x="360" y="20" width="199.99999999999955" height="460" as="geometry">
            <mxRectangle x="360" y="20" width="40" height="460" as="alternateBounds" />
          </mxGeometry>
        </mxCell>
        <mxCell id="rulVWmGJrG6y-shV3jUQ-15" value="Kafka Client fetch messages" style="rounded=1;whiteSpace=wrap;html=1;" vertex="1" parent="rulVWmGJrG6y-shV3jUQ-4">
          <mxGeometry x="39.999999999999545" y="67" width="110" height="40" as="geometry" />
        </mxCell>
        <mxCell id="rulVWmGJrG6y-shV3jUQ-42" value="Error Handling" style="rounded=0;whiteSpace=wrap;html=1;" vertex="1" parent="rulVWmGJrG6y-shV3jUQ-4">
          <mxGeometry x="10" y="175" width="170" height="65" as="geometry" />
        </mxCell>
        <mxCell id="rulVWmGJrG6y-shV3jUQ-13" value="MessageHandler" style="swimlane;startSize=20;html=1;" vertex="1" parent="rulVWmGJrG6y-shV3jUQ-1">
          <mxGeometry x="559.9999999999995" y="20" width="340" height="460" as="geometry">
            <mxRectangle x="360" y="20" width="40" height="460" as="alternateBounds" />
          </mxGeometry>
        </mxCell>
        <mxCell id="rulVWmGJrG6y-shV3jUQ-40" value="" style="rounded=0;whiteSpace=wrap;html=1;" vertex="1" parent="rulVWmGJrG6y-shV3jUQ-13">
          <mxGeometry x="32" y="42" width="270" height="408" as="geometry" />
        </mxCell>
        <mxCell id="rulVWmGJrG6y-shV3jUQ-28" value="" style="edgeStyle=orthogonalEdgeStyle;rounded=0;orthogonalLoop=1;jettySize=auto;html=1;" edge="1" parent="rulVWmGJrG6y-shV3jUQ-13" source="rulVWmGJrG6y-shV3jUQ-19" target="rulVWmGJrG6y-shV3jUQ-21">
          <mxGeometry relative="1" as="geometry" />
        </mxCell>
        <mxCell id="rulVWmGJrG6y-shV3jUQ-19" value="Write message" style="rounded=1;whiteSpace=wrap;html=1;" vertex="1" parent="rulVWmGJrG6y-shV3jUQ-13">
          <mxGeometry x="87" y="67" width="110" height="40" as="geometry" />
        </mxCell>
        <mxCell id="rulVWmGJrG6y-shV3jUQ-30" value="Y" style="edgeStyle=orthogonalEdgeStyle;rounded=0;orthogonalLoop=1;jettySize=auto;html=1;" edge="1" parent="rulVWmGJrG6y-shV3jUQ-13" source="rulVWmGJrG6y-shV3jUQ-21" target="rulVWmGJrG6y-shV3jUQ-29">
          <mxGeometry relative="1" as="geometry" />
        </mxCell>
        <mxCell id="rulVWmGJrG6y-shV3jUQ-39" value="N" style="edgeStyle=orthogonalEdgeStyle;rounded=0;orthogonalLoop=1;jettySize=auto;html=1;entryX=0;entryY=0.5;entryDx=0;entryDy=0;" edge="1" parent="rulVWmGJrG6y-shV3jUQ-13" source="rulVWmGJrG6y-shV3jUQ-21" target="rulVWmGJrG6y-shV3jUQ-38">
          <mxGeometry relative="1" as="geometry">
            <Array as="points">
              <mxPoint x="52" y="179" />
              <mxPoint x="52" y="415" />
            </Array>
          </mxGeometry>
        </mxCell>
        <mxCell id="rulVWmGJrG6y-shV3jUQ-21" value="needCommit?" style="rhombus;whiteSpace=wrap;html=1;" vertex="1" parent="rulVWmGJrG6y-shV3jUQ-13">
          <mxGeometry x="107" y="144" width="70" height="70" as="geometry" />
        </mxCell>
        <mxCell id="rulVWmGJrG6y-shV3jUQ-23" value="&lt;div&gt;flush.max-rows&lt;/div&gt;&lt;div&gt;flush.interval-ms&lt;/div&gt;" style="ellipse;shape=cloud;whiteSpace=wrap;html=1;" vertex="1" parent="rulVWmGJrG6y-shV3jUQ-13">
          <mxGeometry x="190.00000000000045" y="120" width="120" height="80" as="geometry" />
        </mxCell>
        <mxCell id="rulVWmGJrG6y-shV3jUQ-37" value="" style="edgeStyle=orthogonalEdgeStyle;rounded=0;orthogonalLoop=1;jettySize=auto;html=1;" edge="1" parent="rulVWmGJrG6y-shV3jUQ-13" source="rulVWmGJrG6y-shV3jUQ-29" target="rulVWmGJrG6y-shV3jUQ-34">
          <mxGeometry relative="1" as="geometry" />
        </mxCell>
        <mxCell id="rulVWmGJrG6y-shV3jUQ-29" value="commit sr" style="rounded=1;whiteSpace=wrap;html=1;" vertex="1" parent="rulVWmGJrG6y-shV3jUQ-13">
          <mxGeometry x="87" y="245" width="110" height="40" as="geometry" />
        </mxCell>
        <mxCell id="rulVWmGJrG6y-shV3jUQ-34" value="commit kafka offset" style="rounded=1;whiteSpace=wrap;html=1;fillColor=#d5e8d4;strokeColor=#82b366;" vertex="1" parent="rulVWmGJrG6y-shV3jUQ-13">
          <mxGeometry x="87" y="325" width="110" height="40" as="geometry" />
        </mxCell>
        <mxCell id="rulVWmGJrG6y-shV3jUQ-38" value="continue to consume messge" style="rounded=1;whiteSpace=wrap;html=1;" vertex="1" parent="rulVWmGJrG6y-shV3jUQ-13">
          <mxGeometry x="87" y="395" width="110" height="40" as="geometry" />
        </mxCell>
        <mxCell id="rulVWmGJrG6y-shV3jUQ-41" value="handleMessage" style="text;html=1;align=center;verticalAlign=middle;whiteSpace=wrap;rounded=0;fontStyle=1" vertex="1" parent="rulVWmGJrG6y-shV3jUQ-13">
          <mxGeometry x="122.00000000000045" y="40" width="60" height="30" as="geometry" />
        </mxCell>
        <mxCell id="rulVWmGJrG6y-shV3jUQ-25" value="StarRocks stream load sdk" style="swimlane;startSize=20;html=1;" vertex="1" parent="rulVWmGJrG6y-shV3jUQ-1">
          <mxGeometry x="899.9999999999995" y="20" width="210" height="460" as="geometry">
            <mxRectangle x="360" y="20" width="40" height="460" as="alternateBounds" />
          </mxGeometry>
        </mxCell>
        <mxCell id="rulVWmGJrG6y-shV3jUQ-26" value="Write message" style="rounded=1;whiteSpace=wrap;html=1;" vertex="1" parent="rulVWmGJrG6y-shV3jUQ-25">
          <mxGeometry x="39.999999999999545" y="67" width="110" height="40" as="geometry" />
        </mxCell>
        <mxCell id="rulVWmGJrG6y-shV3jUQ-31" value="commit" style="rounded=1;whiteSpace=wrap;html=1;" vertex="1" parent="rulVWmGJrG6y-shV3jUQ-25">
          <mxGeometry x="39.999999999999545" y="245" width="110" height="40" as="geometry" />
        </mxCell>
        <mxCell id="rulVWmGJrG6y-shV3jUQ-8" value="1. Write message" style="edgeStyle=orthogonalEdgeStyle;rounded=0;orthogonalLoop=1;jettySize=auto;html=1;" edge="1" parent="rulVWmGJrG6y-shV3jUQ-1" source="rulVWmGJrG6y-shV3jUQ-5" target="rulVWmGJrG6y-shV3jUQ-7">
          <mxGeometry y="17" relative="1" as="geometry">
            <mxPoint as="offset" />
          </mxGeometry>
        </mxCell>
        <mxCell id="rulVWmGJrG6y-shV3jUQ-16" style="edgeStyle=orthogonalEdgeStyle;rounded=0;orthogonalLoop=1;jettySize=auto;html=1;entryX=0.5;entryY=0;entryDx=0;entryDy=0;entryPerimeter=0;" edge="1" parent="rulVWmGJrG6y-shV3jUQ-1" source="rulVWmGJrG6y-shV3jUQ-15" target="rulVWmGJrG6y-shV3jUQ-7">
          <mxGeometry relative="1" as="geometry" />
        </mxCell>
        <mxCell id="rulVWmGJrG6y-shV3jUQ-17" value="2. fetch message" style="edgeLabel;html=1;align=center;verticalAlign=middle;resizable=0;points=[];" vertex="1" connectable="0" parent="rulVWmGJrG6y-shV3jUQ-16">
          <mxGeometry x="0.2553" y="-1" relative="1" as="geometry">
            <mxPoint x="9" y="-14" as="offset" />
          </mxGeometry>
        </mxCell>
        <mxCell id="rulVWmGJrG6y-shV3jUQ-27" style="edgeStyle=orthogonalEdgeStyle;rounded=0;orthogonalLoop=1;jettySize=auto;html=1;entryX=0;entryY=0.5;entryDx=0;entryDy=0;endArrow=classicThin;endFill=0;startArrow=classic;startFill=1;" edge="1" parent="rulVWmGJrG6y-shV3jUQ-1" source="rulVWmGJrG6y-shV3jUQ-19" target="rulVWmGJrG6y-shV3jUQ-26">
          <mxGeometry relative="1" as="geometry" />
        </mxCell>
        <mxCell id="rulVWmGJrG6y-shV3jUQ-45" value="4. write mesage" style="edgeLabel;html=1;align=center;verticalAlign=middle;resizable=0;points=[];" vertex="1" connectable="0" parent="rulVWmGJrG6y-shV3jUQ-27">
          <mxGeometry x="-0.541" relative="1" as="geometry">
            <mxPoint x="13" y="-15" as="offset" />
          </mxGeometry>
        </mxCell>
        <mxCell id="rulVWmGJrG6y-shV3jUQ-32" style="edgeStyle=orthogonalEdgeStyle;rounded=0;orthogonalLoop=1;jettySize=auto;html=1;entryX=0;entryY=0.5;entryDx=0;entryDy=0;" edge="1" parent="rulVWmGJrG6y-shV3jUQ-1" source="rulVWmGJrG6y-shV3jUQ-29" target="rulVWmGJrG6y-shV3jUQ-31">
          <mxGeometry relative="1" as="geometry" />
        </mxCell>
        <mxCell id="rulVWmGJrG6y-shV3jUQ-33" style="edgeStyle=orthogonalEdgeStyle;rounded=0;orthogonalLoop=1;jettySize=auto;html=1;" edge="1" parent="rulVWmGJrG6y-shV3jUQ-1" source="rulVWmGJrG6y-shV3jUQ-15" target="rulVWmGJrG6y-shV3jUQ-19">
          <mxGeometry relative="1" as="geometry" />
        </mxCell>
        <mxCell id="rulVWmGJrG6y-shV3jUQ-44" value="3. handle message" style="edgeLabel;html=1;align=center;verticalAlign=middle;resizable=0;points=[];" vertex="1" connectable="0" parent="rulVWmGJrG6y-shV3jUQ-33">
          <mxGeometry x="-0.5036" y="2" relative="1" as="geometry">
            <mxPoint x="16" y="-13" as="offset" />
          </mxGeometry>
        </mxCell>
        <mxCell id="rulVWmGJrG6y-shV3jUQ-43" style="edgeStyle=orthogonalEdgeStyle;rounded=0;orthogonalLoop=1;jettySize=auto;html=1;entryX=1;entryY=0.5;entryDx=0;entryDy=0;" edge="1" parent="rulVWmGJrG6y-shV3jUQ-1" source="rulVWmGJrG6y-shV3jUQ-40" target="rulVWmGJrG6y-shV3jUQ-42">
          <mxGeometry relative="1" as="geometry" />
        </mxCell>
      </root>
    </mxGraphModel>
  </diagram>
</mxfile>
